<svg xmlns="http://www.w3.org/2000/svg" xmlns:xlink="http://www.w3.org/1999/xlink" width="500" zoomAndPan="magnify" viewBox="0 0 375 374.999991" height="500" preserveAspectRatio="xMidYMid meet" version="1.0"><defs><clipPath id="bfbab1c929"><path d="M 11.433594 125 L 106 125 L 106 230 L 11.433594 230 Z M 11.433594 125 " clip-rule="nonzero"/></clipPath><clipPath id="b8a156de3b"><path d="M 275 86.238281 L 363.933594 86.238281 L 363.933594 188 L 275 188 Z M 275 86.238281 " clip-rule="nonzero"/></clipPath><clipPath id="40c1e2fadd"><path d="M 164 280.070312 L 268.5625 280.070312 L 268.5625 366.855469 L 164 366.855469 Z M 164 280.070312 " clip-rule="nonzero"/></clipPath></defs><rect x="-37.5" width="450" fill="#ffffff" y="-37.499999" height="449.999989" fill-opacity="1"/><rect x="-37.5" width="450" fill="#ffffff" y="-37.499999" height="449.999989" fill-opacity="1"/><rect x="-37.5" width="450" fill="#ffffff" y="-37.499999" height="449.999989" fill-opacity="1"/><g clip-path="url(#bfbab1c929)"><path fill="#346dbe" d="M 14.011719 184.945312 C 16.632812 186.511719 18.941406 188.210938 21.21875 190.207031 C 22.839844 191.632812 24.703125 192.875 25.964844 194.625 C 27.078125 196.175781 27.84375 197.90625 29.042969 199.425781 C 31.1875 202.136719 31.9375 205.511719 33.753906 208.371094 C 35.570312 211.214844 38.328125 213.246094 40.394531 216.007812 C 44.75 221.820312 46.957031 224.664062 50.855469 227.460938 C 56.601562 231.566406 66.046875 227.171875 71.292969 227.273438 C 74.679688 227.34375 79.585938 229.472656 82.625 228.355469 C 87.757812 226.46875 90.371094 221.167969 91.003906 219.738281 C 92.171875 217.101562 93.316406 214.4375 93.921875 211.625 C 95.261719 205.363281 95.902344 197.09375 95.773438 192.226562 C 95.71875 190.234375 95.207031 186.105469 95.992188 184.265625 C 95.992188 184.261719 99.816406 172.347656 101.777344 166.285156 C 103.742188 160.226562 104.011719 159.445312 105.242188 154.496094 C 106.574219 149.175781 106.128906 147.769531 103.824219 147.164062 C 100.457031 146.277344 98.390625 152.730469 97.910156 154.152344 C 96.585938 158.03125 94.824219 162.042969 93.351562 165.882812 C 92.699219 167.574219 90.371094 174.707031 89.03125 176.277344 C 86.867188 178.804688 84.710938 177.457031 85.035156 174.527344 C 85.484375 170.507812 86.519531 164.492188 86.894531 160.453125 C 87.261719 156.5625 87.621094 154.773438 87.859375 150.875 C 87.992188 148.703125 89.0625 140.941406 88.964844 138.464844 C 88.867188 135.996094 88.953125 132.78125 85.882812 132.542969 C 82.136719 132.246094 81.652344 134.628906 81.15625 136.914062 C 80.238281 141.125 80.210938 143.925781 79.753906 146.972656 C 78.832031 153.085938 78.222656 158.011719 77.03125 164.050781 C 76.734375 165.558594 76.28125 171.640625 73.214844 169.953125 C 70.078125 168.234375 71.636719 153.339844 71.585938 150.5 C 71.433594 142.144531 71.253906 140.324219 71.242188 131.941406 C 71.238281 129.050781 71.132812 125.601562 66.515625 125.519531 C 60.769531 125.421875 62.175781 136.265625 61.871094 140.5625 C 61.257812 149.132812 62.019531 155.414062 61.898438 166.824219 C 61.878906 168.621094 62.8125 173.355469 59.359375 172.285156 C 57.578125 171.730469 54.800781 158.757812 53.828125 155.589844 C 52.1875 150.25 51.09375 147.375 49.761719 143.082031 C 48.023438 137.492188 45.691406 134.007812 42.460938 135.546875 C 38.980469 137.207031 39.589844 138.921875 40.863281 144.023438 C 41.472656 146.464844 43.367188 153.941406 44.175781 157.828125 C 44.988281 161.714844 49.339844 177.167969 49.339844 177.167969 C 49.84375 178.625 49.285156 182.285156 49.144531 183.859375 C 48.648438 189.441406 48.46875 189.921875 47.3125 192.105469 C 45.707031 195.128906 43.773438 196.578125 39.847656 193.84375 C 38.628906 192.996094 36.578125 187.96875 30.6875 182.960938 C 25.707031 178.722656 15.621094 176.15625 12.539062 179.441406 C 11.453125 180.601562 11.675781 183.546875 14.011719 184.945312 " fill-opacity="1" fill-rule="nonzero"/></g><path fill="#ec038d" d="M 83.726562 43.679688 C 84.132812 46.703125 84.242188 49.5625 84.097656 52.585938 C 83.996094 54.738281 84.183594 56.972656 83.601562 59.050781 C 83.082031 60.886719 82.199219 62.5625 81.757812 64.445312 C 80.976562 67.8125 78.804688 70.496094 77.699219 73.703125 C 76.601562 76.894531 76.730469 80.3125 75.859375 83.648438 C 74.023438 90.671875 73.171875 94.171875 73.417969 98.957031 C 73.78125 106.003906 83.113281 110.640625 86.304688 114.800781 C 88.363281 117.488281 89.753906 122.644531 92.523438 124.324219 C 97.199219 127.15625 102.980469 125.886719 104.492188 125.496094 C 107.289062 124.761719 110.085938 123.996094 112.664062 122.710938 C 118.398438 119.855469 125.273438 115.199219 129.003906 112.0625 C 130.527344 110.78125 133.441406 107.804688 135.367188 107.269531 C 135.375 107.265625 147.082031 102.828125 153.050781 100.578125 C 159.019531 98.332031 159.800781 98.054688 164.441406 95.933594 C 169.433594 93.65625 170.257812 92.433594 169.296875 90.253906 C 167.890625 87.074219 161.550781 89.484375 160.136719 89.992188 C 156.277344 91.382812 152.035156 92.503906 148.113281 93.746094 C 146.386719 94.292969 139.347656 96.925781 137.285156 96.855469 C 133.957031 96.738281 133.667969 94.214844 136.164062 92.644531 C 139.589844 90.484375 144.945312 87.542969 148.339844 85.320312 C 151.609375 83.179688 153.238281 82.347656 156.441406 80.101562 C 158.222656 78.851562 164.964844 74.847656 166.839844 73.230469 C 168.714844 71.613281 171.285156 69.679688 169.558594 67.128906 C 167.453125 64.019531 165.285156 65.125 163.1875 66.164062 C 159.320312 68.070312 157.109375 69.796875 154.441406 71.339844 C 149.078125 74.433594 144.847656 77.027344 139.371094 79.863281 C 138.003906 80.570312 132.96875 84.007812 132.371094 80.5625 C 131.765625 77.039062 144.394531 68.96875 146.585938 67.164062 C 153.03125 61.835938 154.34375 60.558594 160.898438 55.324219 C 163.15625 53.519531 165.792969 51.285156 162.976562 47.628906 C 159.472656 43.078125 151.859375 50.9375 148.304688 53.378906 C 141.214844 58.242188 136.773438 62.753906 127.765625 69.773438 C 126.347656 70.878906 123.226562 74.5625 121.910156 71.199219 C 121.234375 69.460938 129.65625 59.203125 131.527344 56.46875 C 134.6875 51.859375 136.257812 49.214844 138.785156 45.496094 C 142.074219 40.652344 143.351562 36.65625 140.128906 35.09375 C 136.660156 33.414062 135.699219 34.960938 132.5 39.132812 C 130.972656 41.132812 126.300781 47.273438 123.761719 50.328125 C 121.222656 53.386719 111.84375 66.417969 111.84375 66.417969 C 111.011719 67.722656 107.796875 69.566406 106.484375 70.433594 C 101.800781 73.527344 101.3125 73.6875 98.878906 74.148438 C 95.515625 74.777344 93.175781 74.175781 92.863281 69.398438 C 92.773438 67.921875 95.425781 63.183594 95.675781 55.460938 C 95.886719 48.929688 91.609375 39.457031 87.113281 39.097656 C 85.527344 38.972656 83.363281 40.980469 83.726562 43.679688 " fill-opacity="1" fill-rule="nonzero"/><path fill="#ed1d24" d="M 237.773438 10.039062 C 235.660156 12.242188 233.492188 14.109375 231.03125 15.886719 C 229.28125 17.144531 227.652344 18.683594 225.664062 19.523438 C 223.902344 20.265625 222.039062 20.621094 220.289062 21.449219 C 217.167969 22.9375 213.710938 22.914062 210.515625 24.050781 C 207.332031 25.183594 204.734375 27.417969 201.582031 28.816406 C 194.9375 31.765625 191.667969 33.277344 188.074219 36.457031 C 182.789062 41.132812 184.976562 51.308594 183.707031 56.394531 C 182.886719 59.679688 179.71875 63.980469 180.132812 67.191406 C 180.828125 72.609375 185.425781 76.332031 186.675781 77.265625 C 188.992188 78.992188 191.335938 80.699219 193.949219 81.910156 C 199.761719 84.609375 207.691406 87.074219 212.472656 88.03125 C 214.425781 88.421875 218.570312 88.84375 220.195312 90.011719 C 220.199219 90.015625 230.976562 96.390625 236.453125 99.652344 C 241.9375 102.910156 242.636719 103.347656 247.191406 105.648438 C 252.085938 108.125 253.558594 108.007812 254.664062 105.898438 C 256.28125 102.816406 250.441406 99.367188 249.164062 98.582031 C 245.667969 96.433594 242.140625 93.824219 238.726562 91.535156 C 237.21875 90.527344 230.769531 86.671875 229.539062 85.015625 C 227.554688 82.347656 229.355469 80.550781 232.136719 81.519531 C 235.964844 82.847656 241.605469 85.195312 245.460938 86.457031 C 249.175781 87.679688 250.847656 88.429688 254.597656 89.527344 C 256.6875 90.140625 264.023438 92.910156 266.464844 93.363281 C 268.898438 93.820312 272.011719 94.617188 272.933594 91.683594 C 274.054688 88.101562 271.835938 87.097656 269.714844 86.105469 C 265.808594 84.277344 263.082031 83.628906 260.210938 82.503906 C 254.449219 80.246094 249.777344 78.558594 244.144531 76.054688 C 242.738281 75.425781 236.902344 73.632812 239.230469 71.023438 C 241.609375 68.351562 255.800781 73.183594 258.582031 73.761719 C 266.773438 75.476562 268.59375 75.707031 276.773438 77.5625 C 279.59375 78.203125 282.988281 78.863281 284.09375 74.386719 C 285.472656 68.8125 274.574219 67.769531 270.445312 66.515625 C 262.214844 64.011719 255.914062 63.355469 244.804688 60.695312 C 243.054688 60.28125 238.226562 60.136719 240.039062 57.015625 C 240.976562 55.402344 254.257812 55.585938 257.566406 55.339844 C 263.144531 54.933594 266.191406 54.511719 270.679688 54.164062 C 276.523438 53.714844 280.445312 52.222656 279.664062 48.730469 C 278.8125 44.972656 277.003906 45.1875 271.742188 45.289062 C 269.226562 45.339844 261.507812 45.527344 257.53125 45.445312 C 253.554688 45.367188 237.503906 46.171875 237.503906 46.171875 C 235.964844 46.335938 232.519531 44.976562 231.015625 44.492188 C 225.675781 42.761719 225.246094 42.480469 223.371094 40.867188 C 220.78125 38.636719 219.792969 36.429688 223.339844 33.214844 C 224.4375 32.21875 229.800781 31.335938 236 26.71875 C 241.246094 22.8125 245.996094 13.5625 243.472656 9.828125 C 242.582031 8.511719 239.65625 8.074219 237.773438 10.039062 " fill-opacity="1" fill-rule="nonzero"/><g clip-path="url(#b8a156de3b)"><path fill="#f25d1b" d="M 360.15625 109.355469 C 357.109375 109.078125 354.292969 108.550781 351.375 107.738281 C 349.296875 107.160156 347.074219 106.84375 345.179688 105.816406 C 343.5 104.898438 342.058594 103.667969 340.320312 102.820312 C 337.207031 101.308594 335.070312 98.59375 332.1875 96.804688 C 329.316406 95.027344 325.949219 94.390625 322.890625 92.804688 C 316.441406 89.453125 313.214844 87.84375 308.488281 87.019531 C 301.527344 85.808594 294.925781 93.859375 290.15625 96.042969 C 287.074219 97.449219 281.734375 97.65625 279.476562 99.980469 C 275.671875 103.902344 275.621094 109.8125 275.671875 111.371094 C 275.761719 114.253906 275.886719 117.152344 276.570312 119.949219 C 278.082031 126.167969 281.09375 133.898438 283.328125 138.230469 C 284.238281 140 286.496094 143.492188 286.589844 145.492188 C 286.589844 145.5 288.316406 157.890625 289.183594 164.199219 C 290.050781 170.511719 290.144531 171.332031 291.183594 176.324219 C 292.296875 181.691406 293.304688 182.769531 295.644531 182.3125 C 299.066406 181.652344 298.125 174.941406 297.941406 173.457031 C 297.445312 169.386719 297.292969 165.007812 296.953125 160.910156 C 296.800781 159.105469 295.800781 151.667969 296.328125 149.675781 C 297.179688 146.460938 299.707031 146.742188 300.6875 149.519531 C 302.03125 153.335938 303.710938 159.207031 305.125 163.003906 C 306.488281 166.667969 306.941406 168.4375 308.417969 172.054688 C 309.242188 174.070312 311.652344 181.527344 312.8125 183.710938 C 313.976562 185.894531 315.289062 188.828125 318.164062 187.714844 C 321.667969 186.359375 321.066406 184 320.523438 181.726562 C 319.519531 177.535156 318.328125 175 317.417969 172.058594 C 315.589844 166.152344 314 161.449219 312.449219 155.492188 C 312.0625 154 309.828125 148.332031 313.324219 148.515625 C 316.898438 148.710938 321.964844 162.804688 323.242188 165.335938 C 327.007812 172.800781 327.960938 174.363281 331.613281 181.910156 C 332.871094 184.515625 334.46875 187.578125 338.660156 185.648438 C 343.886719 183.246094 337.902344 174.085938 336.3125 170.082031 C 333.140625 162.09375 329.730469 156.765625 324.882812 146.433594 C 324.117188 144.804688 321.21875 140.949219 324.792969 140.414062 C 326.640625 140.140625 334.777344 150.625 337.03125 153.058594 C 340.828125 157.15625 343.058594 159.273438 346.128906 162.566406 C 350.125 166.847656 353.738281 168.976562 355.980469 166.191406 C 358.394531 163.1875 357.097656 161.902344 353.734375 157.859375 C 352.128906 155.925781 347.171875 150.015625 344.753906 146.859375 C 342.335938 143.707031 331.699219 131.671875 331.699219 131.671875 C 330.613281 130.574219 329.527344 127.035156 328.972656 125.558594 C 326.996094 120.316406 326.945312 119.800781 327.039062 117.332031 C 327.167969 113.914062 328.285156 111.769531 333.011719 112.535156 C 334.476562 112.769531 338.511719 116.414062 345.992188 118.371094 C 352.320312 120.027344 362.523438 117.96875 363.871094 113.675781 C 364.347656 112.15625 362.867188 109.601562 360.15625 109.355469 " fill-opacity="1" fill-rule="nonzero"/></g><path fill="#f8a70e" d="M 358.714844 266.839844 C 357.03125 264.292969 355.691406 261.765625 354.503906 258.976562 C 353.664062 256.996094 352.523438 255.0625 352.148438 252.941406 C 351.820312 251.0625 351.882812 249.167969 351.460938 247.28125 C 350.703125 243.910156 351.492188 240.542969 351.097656 237.183594 C 350.703125 233.832031 349.097656 230.804688 348.4375 227.421875 C 347.039062 220.296875 346.285156 216.777344 343.984375 212.570312 C 340.59375 206.382812 330.175781 206.246094 325.488281 203.882812 C 322.46875 202.355469 318.976562 198.308594 315.75 197.996094 C 310.304688 197.472656 305.648438 201.117188 304.460938 202.125 C 302.261719 204 300.074219 205.902344 298.304688 208.179688 C 294.378906 213.238281 290.207031 220.410156 288.210938 224.855469 C 287.394531 226.667969 286.0625 230.609375 284.558594 231.929688 C 284.550781 231.929688 275.933594 241.007812 271.53125 245.617188 C 267.128906 250.230469 266.550781 250.816406 263.289062 254.738281 C 259.78125 258.957031 259.566406 260.414062 261.382812 261.957031 C 264.03125 264.21875 268.695312 259.296875 269.746094 258.230469 C 272.621094 255.304688 275.957031 252.457031 278.949219 249.632812 C 280.269531 248.394531 285.46875 242.96875 287.355469 242.140625 C 290.402344 240.804688 291.757812 242.953125 290.191406 245.449219 C 288.046875 248.875 284.496094 253.847656 282.40625 257.324219 C 280.386719 260.667969 279.285156 262.128906 277.375 265.539062 C 276.3125 267.4375 271.976562 273.964844 270.992188 276.238281 C 270.003906 278.503906 268.53125 281.359375 271.191406 282.910156 C 274.441406 284.800781 275.910156 282.863281 277.351562 281.015625 C 280.007812 277.625 281.246094 275.109375 282.984375 272.566406 C 286.46875 267.453125 289.15625 263.285156 292.855469 258.359375 C 293.78125 257.125 296.828125 251.847656 298.855469 254.691406 C 300.9375 257.605469 293.066406 270.347656 291.875 272.925781 C 288.382812 280.519531 287.75 282.238281 284.121094 289.792969 C 282.871094 292.398438 281.46875 295.554688 285.59375 297.628906 C 290.730469 300.210938 294.167969 289.828125 296.3125 286.089844 C 300.585938 278.632812 302.628906 272.644531 307.699219 262.417969 C 308.492188 260.804688 309.707031 256.136719 312.351562 258.597656 C 313.71875 259.871094 310.585938 272.757812 310.085938 276.035156 C 309.246094 281.558594 308.980469 284.617188 308.316406 289.066406 C 307.457031 294.851562 308.042969 299.007812 311.617188 299.019531 C 315.476562 299.03125 315.675781 297.222656 316.742188 292.074219 C 317.253906 289.613281 318.789062 282.054688 319.753906 278.203125 C 320.710938 274.347656 323.503906 258.539062 323.503906 258.539062 C 323.683594 257.003906 325.777344 253.949219 326.585938 252.597656 C 329.460938 247.78125 329.832031 247.425781 331.820312 245.960938 C 334.578125 243.929688 336.949219 243.460938 339.300781 247.628906 C 340.03125 248.917969 339.695312 254.339844 342.828125 261.40625 C 345.472656 267.378906 353.445312 274.0625 357.648438 272.4375 C 359.132812 271.867188 360.210938 269.117188 358.714844 266.839844 " fill-opacity="1" fill-rule="nonzero"/><g clip-path="url(#40c1e2fadd)"><path fill="#2eab4a" d="M 234.535156 363.90625 C 235.480469 361.007812 236.625 358.382812 238.066406 355.71875 C 239.09375 353.824219 239.894531 351.730469 241.324219 350.113281 C 242.585938 348.683594 244.109375 347.554688 245.324219 346.050781 C 247.492188 343.355469 250.617188 341.878906 253.003906 339.472656 C 255.378906 337.070312 256.75 333.933594 258.980469 331.304688 C 263.6875 325.773438 265.972656 322.988281 267.835938 318.566406 C 270.566406 312.0625 264.171875 303.84375 263.105469 298.710938 C 262.417969 295.402344 263.402344 290.148438 261.640625 287.4375 C 258.65625 282.859375 252.898438 281.496094 251.367188 281.195312 C 248.527344 280.644531 245.675781 280.121094 242.796875 280.160156 C 236.386719 280.25 228.171875 281.464844 223.445312 282.675781 C 221.515625 283.167969 217.601562 284.585938 215.628906 284.234375 C 215.625 284.234375 203.140625 283.160156 196.789062 282.597656 C 190.4375 282.039062 189.613281 281.949219 184.511719 281.847656 C 179.023438 281.738281 177.75 282.480469 177.671875 284.863281 C 177.554688 288.335938 184.3125 288.914062 185.808594 289.066406 C 189.890625 289.488281 194.195312 290.3125 198.273438 290.894531 C 200.066406 291.152344 207.550781 291.832031 209.378906 292.789062 C 212.324219 294.335938 211.488281 296.734375 208.558594 297.066406 C 204.539062 297.523438 198.433594 297.855469 194.410156 298.390625 C 190.53125 298.898438 188.699219 298.945312 184.84375 299.582031 C 182.691406 299.933594 174.878906 300.621094 172.488281 301.265625 C 170.09375 301.914062 166.941406 302.539062 167.386719 305.582031 C 167.933594 309.296875 170.367188 309.238281 172.710938 309.214844 C 177.019531 309.171875 179.765625 308.570312 182.835938 308.339844 C 189.011719 307.875 193.953125 307.375 200.117188 307.191406 C 201.65625 307.148438 207.6875 306.234375 206.726562 309.59375 C 205.742188 313.03125 190.859375 314.832031 188.101562 315.511719 C 179.976562 317.515625 178.238281 318.097656 170.0625 319.972656 C 167.242188 320.621094 163.898438 321.492188 164.84375 326.003906 C 166.027344 331.625 176.300781 327.839844 180.558594 327.183594 C 189.0625 325.871094 195.027344 323.730469 206.191406 321.3125 C 207.949219 320.929688 212.359375 318.96875 212.085938 322.570312 C 211.9375 324.425781 199.894531 330.015625 197.019531 331.671875 C 192.171875 334.453125 189.609375 336.15625 185.714844 338.410156 C 180.648438 341.351562 177.757812 344.398438 179.984375 347.199219 C 182.378906 350.214844 183.917969 349.238281 188.613281 346.867188 C 190.859375 345.730469 197.738281 342.222656 201.351562 340.566406 C 204.96875 338.914062 219.082031 331.238281 219.082031 331.238281 C 220.394531 330.421875 224.089844 330.152344 225.652344 329.9375 C 231.214844 329.183594 231.722656 329.246094 234.117188 329.890625 C 237.421875 330.777344 239.269531 332.339844 237.472656 336.773438 C 236.914062 338.144531 232.464844 341.261719 228.882812 348.113281 C 225.859375 353.90625 225.597656 364.296875 229.488281 366.566406 C 230.863281 367.367188 233.6875 366.496094 234.535156 363.90625 " fill-opacity="1" fill-rule="nonzero"/></g><path fill="#5eb9ea" d="M 81.128906 327.460938 C 83.988281 326.390625 86.753906 325.648438 89.738281 325.117188 C 91.867188 324.734375 94.003906 324.054688 96.15625 324.160156 C 98.066406 324.257812 99.898438 324.746094 101.835938 324.753906 C 105.292969 324.765625 108.402344 326.285156 111.773438 326.644531 C 115.132812 327.007812 118.441406 326.121094 121.890625 326.226562 C 129.15625 326.449219 132.761719 326.5 137.382812 325.195312 C 144.175781 323.269531 146.625 313.15625 149.976562 309.121094 C 152.140625 306.519531 156.863281 304.015625 157.886719 300.949219 C 159.613281 295.765625 157.089844 290.414062 156.367188 289.035156 C 155.03125 286.476562 153.660156 283.921875 151.832031 281.699219 C 147.765625 276.746094 141.695312 271.085938 137.804688 268.152344 C 136.210938 266.957031 132.660156 264.78125 131.707031 263.023438 C 131.703125 263.015625 124.765625 252.601562 121.242188 247.289062 C 117.722656 241.976562 117.277344 241.28125 114.175781 237.234375 C 110.839844 232.878906 109.460938 232.351562 107.550781 233.773438 C 104.757812 235.851562 108.523438 241.488281 109.332031 242.746094 C 111.546875 246.195312 113.585938 250.078125 115.671875 253.625 C 116.59375 255.183594 120.726562 261.453125 121.117188 263.476562 C 121.742188 266.738281 119.347656 267.582031 117.253906 265.503906 C 114.390625 262.648438 110.324219 258.085938 107.398438 255.277344 C 104.578125 252.566406 103.402344 251.167969 100.5 248.550781 C 98.882812 247.09375 93.476562 241.417969 91.480469 239.949219 C 89.480469 238.484375 87.023438 236.417969 84.917969 238.664062 C 82.351562 241.40625 83.914062 243.269531 85.390625 245.085938 C 88.117188 248.421875 90.292969 250.191406 92.390625 252.445312 C 96.605469 256.980469 100.078125 260.523438 104.066406 265.222656 C 105.058594 266.394531 109.535156 270.539062 106.308594 271.882812 C 103.003906 273.257812 92.3125 262.753906 90.0625 261.027344 C 83.425781 255.933594 81.890625 254.9375 75.320312 249.722656 C 73.054688 247.925781 70.289062 245.855469 67.347656 249.410156 C 63.6875 253.835938 73.050781 259.5 76.226562 262.414062 C 82.550781 268.238281 87.941406 271.558594 96.796875 278.765625 C 98.195312 279.90625 102.480469 282.125 99.492188 284.152344 C 97.949219 285.203125 86.0625 279.28125 82.972656 278.066406 C 77.769531 276.015625 74.84375 275.078125 70.648438 273.441406 C 65.1875 271.316406 61.007812 270.960938 60.195312 274.445312 C 59.328125 278.199219 61.050781 278.792969 65.835938 280.976562 C 68.125 282.023438 75.160156 285.203125 78.707031 286.996094 C 82.257812 288.789062 97.066406 295.019531 97.066406 295.019531 C 98.523438 295.539062 101.039062 298.257812 102.183594 299.347656 C 106.242188 303.214844 106.507812 303.660156 107.496094 305.921875 C 108.863281 309.058594 108.792969 311.472656 104.199219 312.832031 C 102.777344 313.257812 97.5625 311.722656 89.96875 313.203125 C 83.546875 314.449219 75.253906 320.722656 75.902344 325.179688 C 76.132812 326.753906 78.574219 328.414062 81.128906 327.460938 " fill-opacity="1" fill-rule="nonzero"/></svg>